<svg xmlns="http://www.w3.org/2000/svg" viewBox="0 0 220 120" fill="none">
  <g stroke="#cba328" stroke-opacity="0.35" stroke-width="1">
    <!-- layer 1 -> layer 2 -->
    <line x1="34" y1="20" x2="110" y2="14"/>
    <line x1="34" y1="20" x2="110" y2="41"/>
    <line x1="34" y1="20" x2="110" y2="68"/>
    <line x1="34" y1="20" x2="110" y2="95"/>
    <line x1="34" y1="52" x2="110" y2="14"/>
    <line x1="34" y1="52" x2="110" y2="41"/>
    <line x1="34" y1="52" x2="110" y2="68"/>
    <line x1="34" y1="52" x2="110" y2="95"/>
    <line x1="34" y1="84" x2="110" y2="14"/>
    <line x1="34" y1="84" x2="110" y2="41"/>
    <line x1="34" y1="84" x2="110" y2="68"/>
    <line x1="34" y1="84" x2="110" y2="95"/>
    <!-- layer 2 -> layer 3 -->
    <line x1="110" y1="14" x2="186" y2="38"/>
    <line x1="110" y1="14" x2="186" y2="80"/>
    <line x1="110" y1="41" x2="186" y2="38"/>
    <line x1="110" y1="41" x2="186" y2="80"/>
    <line x1="110" y1="68" x2="186" y2="38"/>
    <line x1="110" y1="68" x2="186" y2="80"/>
    <line x1="110" y1="95" x2="186" y2="38"/>
    <line x1="110" y1="95" x2="186" y2="80"/>
  </g>
  <g stroke="#efc603" stroke-width="1.5" fill="#0d1122">
    <rect x="27" y="13" width="14" height="14" transform="rotate(45 34 20)"/>
    <rect x="27" y="45" width="14" height="14" transform="rotate(45 34 52)"/>
    <rect x="27" y="77" width="14" height="14" transform="rotate(45 34 84)"/>
    <rect x="103" y="7" width="14" height="14" transform="rotate(45 110 14)"/>
    <rect x="103" y="34" width="14" height="14" transform="rotate(45 110 41)"/>
    <rect x="103" y="61" width="14" height="14" transform="rotate(45 110 68)"/>
    <rect x="103" y="88" width="14" height="14" transform="rotate(45 110 95)"/>
    <rect x="179" y="31" width="14" height="14" transform="rotate(45 186 38)"/>
    <rect x="179" y="73" width="14" height="14" transform="rotate(45 186 80)"/>
  </g>
</svg>
