<svg xmlns="http://www.w3.org/2000/svg" width="96" height="96"><defs><g id="f" fill="none" stroke="#cba328" stroke-width="0.75"><path d="M-48,0 L-33.9,-33.9 L0,-48 L33.9,-33.9 L48,0 Z"/><path d="M-10,0 L-7.1,-7.1 L0,-10 L7.1,-7.1 L10,0"/><path d="M8.5,-3.5 L41,-17 M7.1,-7.1 L33.9,-33.9 M3.5,-8.5 L17,-41 M0,-10 L0,-48 M-3.5,-8.5 L-17,-41 M-7.1,-7.1 L-33.9,-33.9 M-8.5,-3.5 L-41,-17"/></g></defs><use href="#f" x="48" y="48"/><use href="#f" x="0" y="96"/><use href="#f" x="96" y="96"/><use href="#f" x="0" y="0"/><use href="#f" x="96" y="0"/></svg>
