<svg xmlns="http://www.w3.org/2000/svg" width="96" height="96"><defs><g id="f" fill="none" stroke="#cba328" stroke-width="0.75"><path d="M-48,0 A48,48 0 0 1 48,0 Z"/><path d="M-10,0 A10,10 0 0 1 10,0"/><path d="M9.5,-3.1 L45.7,-14.8 M8.1,-5.9 L38.8,-28.2 M5.9,-8.1 L28.2,-38.8 M3.1,-9.5 L14.8,-45.7 M0,-10 L0,-48 M-3.1,-9.5 L-14.8,-45.7 M-5.9,-8.1 L-28.2,-38.8 M-8.1,-5.9 L-38.8,-28.2 M-9.5,-3.1 L-45.7,-14.8"/></g></defs><use href="#f" x="48" y="48"/><use href="#f" x="0" y="96"/><use href="#f" x="96" y="96"/><use href="#f" x="0" y="0"/><use href="#f" x="96" y="0"/></svg>
